<mxfile host="app.diagrams.net" modified="2023-04-12T18:27:56.083Z" agent="Mozilla/5.0 (Windows NT 10.0; Win64; x64) AppleWebKit/537.36 (KHTML, like Gecko) Chrome/111.0.0.0 Safari/537.36" etag="DfEpgRmNgA1YGPJD9rlA" version="21.1.2" type="device">
  <diagram name="Page-1" id="fO88pGpJr-6HVbXKBibd">
    <mxGraphModel dx="1450" dy="599" grid="1" gridSize="10" guides="1" tooltips="1" connect="1" arrows="1" fold="1" page="0" pageScale="1" pageWidth="1169" pageHeight="827" background="#ffffff" math="0" shadow="0">
      <root>
        <mxCell id="0" />
        <mxCell id="1" parent="0" />
        <mxCell id="rDw_ophrgexsKVq05Nxl-64" value="Push message" style="edgeStyle=none;curved=1;rounded=0;orthogonalLoop=1;jettySize=auto;html=1;exitX=1;exitY=0.5;exitDx=0;exitDy=0;entryX=0;entryY=0.5;entryDx=0;entryDy=0;strokeColor=#457B9D;fontSize=12;fontColor=#1D3557;startSize=8;endSize=8;fillColor=#A8DADC;verticalAlign=bottom;" edge="1" parent="1" source="rDw_ophrgexsKVq05Nxl-62" target="rDw_ophrgexsKVq05Nxl-23">
          <mxGeometry relative="1" as="geometry" />
        </mxCell>
        <mxCell id="rDw_ophrgexsKVq05Nxl-62" value="" style="rounded=0;whiteSpace=wrap;html=1;strokeColor=#457B9D;fontSize=16;fontColor=#1D3557;fillColor=none;" vertex="1" parent="1">
          <mxGeometry x="-360" y="120" width="200" height="280" as="geometry" />
        </mxCell>
        <mxCell id="rDw_ophrgexsKVq05Nxl-23" value="Kafka Cluster" style="rounded=1;whiteSpace=wrap;html=1;strokeColor=#457B9D;fontSize=16;fontColor=#1D3557;fillColor=none;arcSize=5;verticalAlign=top;" vertex="1" parent="1">
          <mxGeometry x="-40" width="550" height="520" as="geometry" />
        </mxCell>
        <mxCell id="rDw_ophrgexsKVq05Nxl-8" value="Broker 1" style="rounded=0;whiteSpace=wrap;html=1;strokeColor=#457B9D;fontSize=16;fontColor=#1D3557;fillColor=#D5E8D4;verticalAlign=top;fillStyle=dots;gradientColor=#67AB9F;gradientDirection=south;" vertex="1" parent="1">
          <mxGeometry x="-20" y="40" width="510" height="140" as="geometry" />
        </mxCell>
        <mxCell id="rDw_ophrgexsKVq05Nxl-3" value="Topic A" style="rounded=1;whiteSpace=wrap;html=1;strokeColor=#457B9D;fontSize=16;fontColor=#1D3557;fillColor=none;horizontal=1;labelPosition=center;verticalLabelPosition=middle;align=center;verticalAlign=top;fillStyle=hatch;" vertex="1" parent="1">
          <mxGeometry x="-10" y="80" width="150" height="90" as="geometry" />
        </mxCell>
        <mxCell id="rDw_ophrgexsKVq05Nxl-4" value="Topic A" style="rounded=1;whiteSpace=wrap;html=1;strokeColor=#457B9D;fontSize=16;fontColor=#1D3557;fillColor=none;horizontal=1;labelPosition=center;verticalLabelPosition=middle;align=center;verticalAlign=top;fillStyle=hatch;" vertex="1" parent="1">
          <mxGeometry x="160" y="80" width="150" height="90" as="geometry" />
        </mxCell>
        <mxCell id="rDw_ophrgexsKVq05Nxl-6" value="Topic B" style="rounded=1;whiteSpace=wrap;html=1;strokeColor=#457B9D;fontSize=16;fontColor=#1D3557;fillColor=none;horizontal=1;labelPosition=center;verticalLabelPosition=middle;align=center;verticalAlign=top;fillStyle=hatch;" vertex="1" parent="1">
          <mxGeometry x="330" y="80" width="150" height="90" as="geometry" />
        </mxCell>
        <mxCell id="rDw_ophrgexsKVq05Nxl-2" value="Partition 2" style="strokeWidth=2;html=1;shape=mxgraph.flowchart.direct_data;whiteSpace=wrap;strokeColor=#457B9D;fontSize=16;fontColor=#1D3557;fillColor=#A8DADC;" vertex="1" parent="1">
          <mxGeometry x="170" y="120" width="130" height="40" as="geometry" />
        </mxCell>
        <mxCell id="rDw_ophrgexsKVq05Nxl-5" value="Partition 5" style="strokeWidth=2;html=1;shape=mxgraph.flowchart.direct_data;whiteSpace=wrap;strokeColor=#457B9D;fontSize=16;fontColor=#1D3557;fillColor=#A8DADC;" vertex="1" parent="1">
          <mxGeometry x="340" y="120" width="130" height="40" as="geometry" />
        </mxCell>
        <mxCell id="rDw_ophrgexsKVq05Nxl-1" value="Partition 1" style="strokeWidth=2;html=1;shape=mxgraph.flowchart.direct_data;whiteSpace=wrap;strokeColor=#457B9D;fontSize=16;fontColor=#1D3557;fillColor=#A8DADC;" vertex="1" parent="1">
          <mxGeometry y="120" width="130" height="40" as="geometry" />
        </mxCell>
        <mxCell id="rDw_ophrgexsKVq05Nxl-38" value="Broker 2" style="rounded=0;whiteSpace=wrap;html=1;strokeColor=#457B9D;fontSize=16;fontColor=#1D3557;fillColor=#D5E8D4;verticalAlign=top;fillStyle=dots;gradientColor=#67AB9F;gradientDirection=south;" vertex="1" parent="1">
          <mxGeometry x="-20" y="200" width="510" height="140" as="geometry" />
        </mxCell>
        <mxCell id="rDw_ophrgexsKVq05Nxl-39" value="Topic A" style="rounded=1;whiteSpace=wrap;html=1;strokeColor=#457B9D;fontSize=16;fontColor=#1D3557;fillColor=none;horizontal=1;labelPosition=center;verticalLabelPosition=middle;align=center;verticalAlign=top;fillStyle=hatch;" vertex="1" parent="1">
          <mxGeometry x="-10" y="240" width="150" height="90" as="geometry" />
        </mxCell>
        <mxCell id="rDw_ophrgexsKVq05Nxl-40" value="Topic A" style="rounded=1;whiteSpace=wrap;html=1;strokeColor=#457B9D;fontSize=16;fontColor=#1D3557;fillColor=none;horizontal=1;labelPosition=center;verticalLabelPosition=middle;align=center;verticalAlign=top;fillStyle=hatch;" vertex="1" parent="1">
          <mxGeometry x="160" y="240" width="150" height="90" as="geometry" />
        </mxCell>
        <mxCell id="rDw_ophrgexsKVq05Nxl-41" value="Topic B" style="rounded=1;whiteSpace=wrap;html=1;strokeColor=#457B9D;fontSize=16;fontColor=#1D3557;fillColor=none;horizontal=1;labelPosition=center;verticalLabelPosition=middle;align=center;verticalAlign=top;fillStyle=hatch;" vertex="1" parent="1">
          <mxGeometry x="330" y="240" width="150" height="90" as="geometry" />
        </mxCell>
        <mxCell id="rDw_ophrgexsKVq05Nxl-42" value="Partition 2" style="strokeWidth=2;html=1;shape=mxgraph.flowchart.direct_data;whiteSpace=wrap;strokeColor=#457B9D;fontSize=16;fontColor=#1D3557;fillColor=#A8DADC;" vertex="1" parent="1">
          <mxGeometry x="170" y="280" width="130" height="40" as="geometry" />
        </mxCell>
        <mxCell id="rDw_ophrgexsKVq05Nxl-43" value="Partition 5" style="strokeWidth=2;html=1;shape=mxgraph.flowchart.direct_data;whiteSpace=wrap;strokeColor=#457B9D;fontSize=16;fontColor=#1D3557;fillColor=#A8DADC;" vertex="1" parent="1">
          <mxGeometry x="340" y="280" width="130" height="40" as="geometry" />
        </mxCell>
        <mxCell id="rDw_ophrgexsKVq05Nxl-44" value="Partition 1" style="strokeWidth=2;html=1;shape=mxgraph.flowchart.direct_data;whiteSpace=wrap;strokeColor=#457B9D;fontSize=16;fontColor=#1D3557;fillColor=#A8DADC;" vertex="1" parent="1">
          <mxGeometry y="280" width="130" height="40" as="geometry" />
        </mxCell>
        <mxCell id="rDw_ophrgexsKVq05Nxl-52" value="Broker 3" style="rounded=0;whiteSpace=wrap;html=1;strokeColor=#457B9D;fontSize=16;fontColor=#1D3557;fillColor=#D5E8D4;verticalAlign=top;fillStyle=dots;gradientColor=#67AB9F;gradientDirection=south;" vertex="1" parent="1">
          <mxGeometry x="-20" y="360" width="510" height="140" as="geometry" />
        </mxCell>
        <mxCell id="rDw_ophrgexsKVq05Nxl-53" value="Topic A" style="rounded=1;whiteSpace=wrap;html=1;strokeColor=#457B9D;fontSize=16;fontColor=#1D3557;fillColor=none;horizontal=1;labelPosition=center;verticalLabelPosition=middle;align=center;verticalAlign=top;fillStyle=hatch;" vertex="1" parent="1">
          <mxGeometry x="-10" y="400" width="150" height="90" as="geometry" />
        </mxCell>
        <mxCell id="rDw_ophrgexsKVq05Nxl-54" value="Topic A" style="rounded=1;whiteSpace=wrap;html=1;strokeColor=#457B9D;fontSize=16;fontColor=#1D3557;fillColor=none;horizontal=1;labelPosition=center;verticalLabelPosition=middle;align=center;verticalAlign=top;fillStyle=hatch;" vertex="1" parent="1">
          <mxGeometry x="160" y="400" width="150" height="90" as="geometry" />
        </mxCell>
        <mxCell id="rDw_ophrgexsKVq05Nxl-55" value="Topic B" style="rounded=1;whiteSpace=wrap;html=1;strokeColor=#457B9D;fontSize=16;fontColor=#1D3557;fillColor=none;horizontal=1;labelPosition=center;verticalLabelPosition=middle;align=center;verticalAlign=top;fillStyle=hatch;" vertex="1" parent="1">
          <mxGeometry x="330" y="400" width="150" height="90" as="geometry" />
        </mxCell>
        <mxCell id="rDw_ophrgexsKVq05Nxl-56" value="Partition 2" style="strokeWidth=2;html=1;shape=mxgraph.flowchart.direct_data;whiteSpace=wrap;strokeColor=#457B9D;fontSize=16;fontColor=#1D3557;fillColor=#A8DADC;" vertex="1" parent="1">
          <mxGeometry x="170" y="440" width="130" height="40" as="geometry" />
        </mxCell>
        <mxCell id="rDw_ophrgexsKVq05Nxl-57" value="Partition 5" style="strokeWidth=2;html=1;shape=mxgraph.flowchart.direct_data;whiteSpace=wrap;strokeColor=#457B9D;fontSize=16;fontColor=#1D3557;fillColor=#A8DADC;" vertex="1" parent="1">
          <mxGeometry x="340" y="440" width="130" height="40" as="geometry" />
        </mxCell>
        <mxCell id="rDw_ophrgexsKVq05Nxl-58" value="Partition 1" style="strokeWidth=2;html=1;shape=mxgraph.flowchart.direct_data;whiteSpace=wrap;strokeColor=#457B9D;fontSize=16;fontColor=#1D3557;fillColor=#A8DADC;" vertex="1" parent="1">
          <mxGeometry y="440" width="130" height="40" as="geometry" />
        </mxCell>
        <mxCell id="rDw_ophrgexsKVq05Nxl-59" value="Producer 1" style="rounded=1;whiteSpace=wrap;html=1;strokeColor=#457B9D;fontSize=16;fontColor=#1D3557;fillColor=default;arcSize=50;" vertex="1" parent="1">
          <mxGeometry x="-340" y="160" width="160" height="40" as="geometry" />
        </mxCell>
        <mxCell id="rDw_ophrgexsKVq05Nxl-60" value="Producer 2" style="rounded=1;whiteSpace=wrap;html=1;strokeColor=#457B9D;fontSize=16;fontColor=#1D3557;fillColor=default;arcSize=50;" vertex="1" parent="1">
          <mxGeometry x="-340" y="240" width="160" height="40" as="geometry" />
        </mxCell>
        <mxCell id="rDw_ophrgexsKVq05Nxl-61" value="Producer 3" style="rounded=1;whiteSpace=wrap;html=1;strokeColor=#457B9D;fontSize=16;fontColor=#1D3557;fillColor=default;arcSize=50;" vertex="1" parent="1">
          <mxGeometry x="-340" y="320" width="160" height="40" as="geometry" />
        </mxCell>
        <mxCell id="rDw_ophrgexsKVq05Nxl-69" value="Pull message" style="edgeStyle=none;curved=1;rounded=0;orthogonalLoop=1;jettySize=auto;html=1;entryX=1;entryY=0.5;entryDx=0;entryDy=0;strokeColor=#457B9D;fontSize=12;fontColor=#1D3557;startSize=8;endSize=8;fillColor=#A8DADC;verticalAlign=bottom;" edge="1" parent="1" source="rDw_ophrgexsKVq05Nxl-65" target="rDw_ophrgexsKVq05Nxl-23">
          <mxGeometry relative="1" as="geometry" />
        </mxCell>
        <mxCell id="rDw_ophrgexsKVq05Nxl-65" value="" style="rounded=0;whiteSpace=wrap;html=1;strokeColor=#457B9D;fontSize=16;fontColor=#1D3557;fillColor=none;" vertex="1" parent="1">
          <mxGeometry x="640" y="120" width="200" height="280" as="geometry" />
        </mxCell>
        <mxCell id="rDw_ophrgexsKVq05Nxl-66" value="Consumer 1" style="rounded=1;whiteSpace=wrap;html=1;strokeColor=#457B9D;fontSize=16;fontColor=#1D3557;fillColor=default;arcSize=50;" vertex="1" parent="1">
          <mxGeometry x="660" y="160" width="160" height="40" as="geometry" />
        </mxCell>
        <mxCell id="rDw_ophrgexsKVq05Nxl-67" value="&lt;span style=&quot;color: rgb(29, 53, 87); font-family: Helvetica; font-size: 16px; font-style: normal; font-variant-ligatures: normal; font-variant-caps: normal; font-weight: 400; letter-spacing: normal; orphans: 2; text-align: center; text-indent: 0px; text-transform: none; widows: 2; word-spacing: 0px; -webkit-text-stroke-width: 0px; background-color: rgb(255, 255, 255); text-decoration-thickness: initial; text-decoration-style: initial; text-decoration-color: initial; float: none; display: inline !important;&quot;&gt;Consumer&lt;span&gt;&amp;nbsp;2&lt;/span&gt;&lt;/span&gt;" style="rounded=1;whiteSpace=wrap;html=1;strokeColor=#457B9D;fontSize=16;fontColor=#1D3557;fillColor=default;arcSize=50;" vertex="1" parent="1">
          <mxGeometry x="660" y="240" width="160" height="40" as="geometry" />
        </mxCell>
        <mxCell id="rDw_ophrgexsKVq05Nxl-68" value="Consumer 3" style="rounded=1;whiteSpace=wrap;html=1;strokeColor=#457B9D;fontSize=16;fontColor=#1D3557;fillColor=default;arcSize=50;" vertex="1" parent="1">
          <mxGeometry x="660" y="320" width="160" height="40" as="geometry" />
        </mxCell>
      </root>
    </mxGraphModel>
  </diagram>
</mxfile>
